<svg width="508" height="508" viewBox="0 0 508 508" fill="none" xmlns="http://www.w3.org/2000/svg">
<g clip-path="url(#clip0_522_1457)">
<g clip-path="url(#clip1_522_1457)">
<mask id="mask0_522_1457" style="mask-type:alpha" maskUnits="userSpaceOnUse" x="0" y="0" width="508" height="508">
<circle cx="254" cy="254" r="254" fill="url(#paint0_linear_522_1457)"/>
</mask>
<g mask="url(#mask0_522_1457)">
<rect width="508" height="508" fill="#9CDABC"/>
<path d="M383.216 371.076C376.139 367.196 370.681 360.915 367.828 353.365C367.142 350.16 367.145 346.845 367.838 343.642C368.53 340.438 369.896 337.418 371.845 334.782C391.577 305.997 400.091 270.984 395.78 236.352C391.47 201.719 374.632 169.863 348.445 146.793C322.258 123.723 288.532 111.036 253.633 111.125C218.733 111.215 185.074 124.075 159.005 147.279C132.937 170.484 116.263 202.427 112.131 237.081C107.998 271.735 116.692 306.703 136.572 335.387C156.452 364.07 186.144 384.486 220.043 392.78C253.943 401.075 289.706 396.675 320.584 380.41C330.834 388.884 343.694 393.559 356.992 393.647C366.396 393.734 375.65 391.301 383.795 386.6C385.127 385.765 386.215 384.594 386.95 383.204C387.685 381.815 388.041 380.256 387.983 378.685C387.924 377.114 387.452 375.587 386.616 374.256C385.779 372.925 384.606 371.838 383.216 371.105V371.076Z" fill="white"/>
<path d="M279.032 205.327C273.768 205.97 268.719 207.803 264.267 210.686C259.815 213.569 256.078 217.427 253.338 221.968L253.1 222.326L252.869 221.968C250.165 217.275 246.362 213.31 241.787 210.411C237.212 207.512 232.002 205.768 226.604 205.327C222.196 205.454 217.857 206.448 213.834 208.254C209.812 210.06 206.185 212.642 203.162 215.852C200.135 219.065 197.771 222.842 196.206 226.969C194.64 231.096 193.904 235.491 194.039 239.903C194.039 261.369 211.565 282.771 246.166 304.329C248.173 305.573 250.485 306.238 252.846 306.25C255.208 306.263 257.526 305.622 259.546 304.399L261.665 303.098C295.737 281.969 312.927 260.976 312.927 239.903C313.178 231.001 309.889 222.362 303.781 215.881C297.673 209.399 289.244 205.604 280.343 205.327H279.032Z" fill="#9CDABC"/>
<path d="M226.736 201.362C231.887 201.634 236.915 203.03 241.468 205.452C246.021 207.874 249.989 211.264 253.093 215.383C256.192 211.429 260.063 208.147 264.47 205.736C268.878 203.326 273.73 201.838 278.73 201.362H280.171C290.166 201.619 299.652 205.828 306.549 213.066C313.447 220.305 317.193 229.983 316.967 239.979C316.497 252.602 311.627 264.663 303.2 274.073C291.937 286.913 278.664 297.84 263.901 306.429L261.775 307.729C259.088 309.348 256.006 310.196 252.868 310.178C249.73 310.16 246.658 309.278 243.989 307.628C228.968 298.867 215.468 287.725 204.017 274.638C195.485 265.056 190.558 252.801 190.082 239.979C190.017 229.889 193.818 220.157 200.703 212.781C204.021 209.187 208.046 206.317 212.526 204.352C217.006 202.387 221.844 201.369 226.736 201.362ZM249.309 224.471C247.009 220.392 243.754 216.933 239.822 214.392C235.89 211.85 231.399 210.301 226.736 209.879C219.018 210.157 211.725 213.479 206.45 219.12C201.175 224.76 198.348 232.26 198.587 239.979C198.587 259.535 215.371 279.856 248.472 300.44C249.803 301.269 251.338 301.711 252.907 301.719C254.475 301.726 256.014 301.297 257.354 300.481L259.444 299.212C291.952 279.05 308.453 259.12 308.453 239.973C308.678 232.243 305.835 224.739 300.545 219.098C295.256 213.457 287.949 210.139 280.221 209.866H279.032C274.478 210.483 270.122 212.117 266.286 214.648C262.45 217.178 259.234 220.54 256.875 224.483L253.068 230.342L249.309 224.471Z" fill="#9CDABC"/>
</g>
</g>
</g>
<defs>
<linearGradient id="paint0_linear_522_1457" x1="254" y1="0" x2="254" y2="508" gradientUnits="userSpaceOnUse">
<stop stop-color="#57B8EA"/>
<stop offset="1" stop-color="#2765D9"/>
</linearGradient>
<clipPath id="clip0_522_1457">
<rect width="508" height="508" fill="white"/>
</clipPath>
<clipPath id="clip1_522_1457">
<rect width="508" height="508" fill="white"/>
</clipPath>
</defs>
</svg>
