<svg width="100" height="100" viewBox="0 0 100 100" fill="none" xmlns="http://www.w3.org/2000/svg">
<path d="M49.7117 80C71.8988 80 90 61.8968 90 39.7071C90 18.1032 71.8988 8.17289 58.4694 8.17289C32.1962 8.17289 30.4437 33.868 30.4437 33.868H31.0295C31.0295 33.868 35.7012 15.1837 53.8024 15.1837C68.3986 15.1837 79.4946 25.1092 79.4946 39.126C79.4946 55.4766 66.0651 68.9075 49.7164 68.9075C33.9535 68.9075 19.3573 57.2293 19.3573 36.2065C19.3573 19.8559 28.115 6.42496 43.297 0.585824V0C24.029 2.91957 10.0138 19.8559 10.0138 39.7071C9.42807 61.8968 27.5245 80 49.7117 80Z" fill="black"/>
</svg>
